<?xml version="1.0" standalone="no"?>
<!DOCTYPE svg PUBLIC "-//W3C//DTD SVG 20010904//EN"
 "http://www.w3.org/TR/2001/REC-SVG-20010904/DTD/svg10.dtd">
<svg version="1.0" xmlns="http://www.w3.org/2000/svg"
 width="301.000000pt" height="167.000000pt" viewBox="0 0 301.000000 167.000000"
 preserveAspectRatio="xMidYMid meet">

<g transform="translate(0.000000,167.000000) scale(0.100000,-0.100000)"
fill="#000000" stroke="none">
<path d="M1935 1650 c-43 -9 -65 -23 -107 -67 l-38 -39 213 -212 212 -212 49
49 c34 35 50 60 55 88 14 77 3 96 -146 245 -146 146 -172 162 -238 148z"/>
<path d="M1665 1435 l-50 -45 184 -182 c101 -101 203 -199 225 -219 l41 -37
50 44 50 44 -220 220 c-121 121 -222 220 -225 220 -3 -1 -27 -21 -55 -45z"/>
<path d="M1190 964 l-361 -359 -75 -253 c-41 -139 -74 -266 -74 -282 0 -35 23
-60 55 -60 12 0 139 34 281 75 l258 76 271 266 c148 147 312 308 363 358 l92
90 -49 49 -49 48 -355 -352 -356 -352 -137 -40 -136 -40 -31 30 -31 31 42 143
42 143 350 350 350 350 -44 44 -44 43 -362 -358z"/>
<path d="M1349 813 l-351 -348 53 -16 c50 -15 54 -19 57 -50 2 -19 7 -37 10
-41 4 -4 165 150 357 342 l350 350 -55 55 c-30 30 -58 55 -62 55 -5 0 -166
-156 -359 -347z"/>
</g>
</svg>
